<svg xmlns="http://www.w3.org/2000/svg" viewBox="0 0 500 270" width="500" height="270">
  <g fill="#000" stroke="none" fill-rule="evenodd">
    <path d="M 286 107 L 282 111 L 281 113 L 281 117 L 285 123 L 287 124 L 292 124 L 296 120 L 296 117 L 297 116 L 295 109 L 292 107 Z"/>
    <path d="M 42 72 L 37 77 L 35 82 L 35 85 L 34 86 L 34 103 L 35 104 L 35 108 L 36 109 L 36 112 L 38 115 L 38 117 L 41 120 L 46 120 L 48 118 L 48 114 L 47 113 L 47 110 L 46 109 L 46 106 L 44 101 L 44 88 L 45 87 L 45 84 L 48 78 L 48 76 L 46 73 Z"/>
    <path d="M 71 44 L 68 51 L 67 94 L 64 102 L 58 109 L 57 117 L 60 120 L 68 114 L 73 164 L 80 184 L 85 186 L 90 181 L 94 172 L 100 142 L 98 139 L 94 140 L 90 160 L 84 171 L 80 153 L 77 110 L 93 100 L 94 94 L 90 92 L 77 93 L 75 47 Z"/>
    <path d="M 429 31 L 424 32 L 417 41 L 408 89 L 403 101 L 379 125 L 381 133 L 403 127 L 401 199 L 408 219 L 417 226 L 428 222 L 439 211 L 461 170 L 461 164 L 454 162 L 436 192 L 426 203 L 420 205 L 418 152 L 421 122 L 461 106 L 461 101 L 454 98 L 425 98 L 432 47 L 432 33 Z"/>
    <path d="M 267 31 L 224 31 L 168 47 L 156 55 L 157 60 L 163 62 L 214 49 L 253 46 L 260 49 L 264 57 L 253 84 L 170 185 L 164 211 L 175 226 L 189 230 L 209 229 L 236 222 L 258 210 L 255 203 L 224 212 L 192 215 L 185 213 L 181 204 L 194 182 L 252 117 L 278 79 L 282 48 L 278 39 Z"/>
    <path d="M 367 22 L 353 25 L 343 35 L 332 56 L 318 123 L 317 156 L 322 189 L 299 207 L 288 208 L 284 204 L 287 145 L 283 141 L 276 149 L 269 174 L 267 203 L 271 219 L 279 226 L 302 221 L 326 201 L 338 216 L 357 216 L 381 197 L 395 176 L 395 170 L 388 168 L 367 192 L 347 202 L 339 192 L 336 179 L 361 125 L 375 71 L 377 39 Z M 358 50 L 359 51 L 359 65 L 358 66 L 357 80 L 355 85 L 355 89 L 354 90 L 349 113 L 344 128 L 344 131 L 338 149 L 335 154 L 334 153 L 335 150 L 335 127 L 336 126 L 336 119 L 337 118 L 339 103 L 340 102 L 342 91 L 344 87 L 344 84 L 352 60 Z M 358 49 L 359 48 L 360 50 L 359 51 Z"/>
  </g>
</svg>
